<svg width="32" height="32" viewBox="0 0 32 32" fill="none" xmlns="http://www.w3.org/2000/svg">
<path opacity="0.2" d="M26 10V22H6V10H26Z" fill="#FF5257"/>
<path d="M26.7075 22.7075L22.7075 26.7075C22.5199 26.8951 22.2654 27.0006 22 27.0006C21.7346 27.0006 21.4801 26.8951 21.2925 26.7075C21.1049 26.5199 20.9994 26.2654 20.9994 26C20.9994 25.7346 21.1049 25.4801 21.2925 25.2925L23.5863 23H6C5.73478 23 5.48043 22.8946 5.29289 22.7071C5.10536 22.5196 5 22.2652 5 22C5 21.7348 5.10536 21.4804 5.29289 21.2929C5.48043 21.1054 5.73478 21 6 21H23.5863L21.2925 18.7075C21.1049 18.5199 20.9994 18.2654 20.9994 18C20.9994 17.7346 21.1049 17.4801 21.2925 17.2925C21.4801 17.1049 21.7346 16.9994 22 16.9994C22.2654 16.9994 22.5199 17.1049 22.7075 17.2925L26.7075 21.2925C26.8005 21.3854 26.8742 21.4957 26.9246 21.6171C26.9749 21.7385 27.0008 21.8686 27.0008 22C27.0008 22.1314 26.9749 22.2615 26.9246 22.3829C26.8742 22.5043 26.8005 22.6146 26.7075 22.7075ZM9.2925 14.7075C9.48014 14.8951 9.73464 15.0006 10 15.0006C10.2654 15.0006 10.5199 14.8951 10.7075 14.7075C10.8951 14.5199 11.0006 14.2654 11.0006 14C11.0006 13.7346 10.8951 13.4801 10.7075 13.2925L8.41375 11H26C26.2652 11 26.5196 10.8946 26.7071 10.7071C26.8946 10.5196 27 10.2652 27 10C27 9.73478 26.8946 9.48043 26.7071 9.29289C26.5196 9.10536 26.2652 9 26 9H8.41375L10.7075 6.7075C10.8951 6.51986 11.0006 6.26536 11.0006 6C11.0006 5.73464 10.8951 5.48014 10.7075 5.2925C10.5199 5.10486 10.2654 4.99944 10 4.99944C9.73464 4.99944 9.48014 5.10486 9.2925 5.2925L5.2925 9.2925C5.19952 9.38537 5.12577 9.49566 5.07544 9.61706C5.02512 9.73846 4.99921 9.86858 4.99921 10C4.99921 10.1314 5.02512 10.2615 5.07544 10.3829C5.12577 10.5043 5.19952 10.6146 5.2925 10.7075L9.2925 14.7075Z" fill="#FF5257"/>
</svg>
