<svg width="32" height="32" viewBox="0 0 32 32" fill="none" xmlns="http://www.w3.org/2000/svg">
<path opacity="0.2" d="M11 8C11 8.59334 10.8241 9.17336 10.4944 9.66671C10.1648 10.1601 9.69623 10.5446 9.14805 10.7716C8.59987 10.9987 7.99667 11.0581 7.41473 10.9424C6.83279 10.8266 6.29824 10.5409 5.87868 10.1213C5.45912 9.70176 5.1734 9.16721 5.05765 8.58527C4.94189 8.00333 5.0013 7.40013 5.22836 6.85195C5.45543 6.30377 5.83994 5.83524 6.33329 5.50559C6.82664 5.17595 7.40666 5 8 5C8.79565 5 9.55871 5.31607 10.1213 5.87868C10.6839 6.44129 11 7.20435 11 8ZM24 5C23.4067 5 22.8266 5.17595 22.3333 5.50559C21.8399 5.83524 21.4554 6.30377 21.2284 6.85195C21.0013 7.40013 20.9419 8.00333 21.0576 8.58527C21.1734 9.16721 21.4591 9.70176 21.8787 10.1213C22.2982 10.5409 22.8328 10.8266 23.4147 10.9424C23.9967 11.0581 24.5999 10.9987 25.1481 10.7716C25.6962 10.5446 26.1648 10.1601 26.4944 9.66671C26.8241 9.17336 27 8.59334 27 8C27 7.20435 26.6839 6.44129 26.1213 5.87868C25.5587 5.31607 24.7957 5 24 5Z" fill="#FF5257"/>
<path d="M28 8C27.9996 7.25195 27.7895 6.519 27.3935 5.88438C26.9974 5.24976 26.4314 4.73891 25.7596 4.40984C25.0878 4.08077 24.3372 3.94667 23.5931 4.02277C22.8489 4.09887 22.141 4.38212 21.5497 4.84036C20.9584 5.29859 20.5075 5.91344 20.2481 6.61508C19.9888 7.31673 19.9313 8.07704 20.0824 8.80968C20.2334 9.54233 20.5869 10.2179 21.1026 10.7598C21.6184 11.3016 22.2757 11.688 23 11.875V14C23 14.2652 22.8946 14.5196 22.7071 14.7071C22.5196 14.8946 22.2652 15 22 15H10C9.73479 15 9.48043 14.8946 9.2929 14.7071C9.10536 14.5196 9 14.2652 9 14V11.875C9.94266 11.6316 10.7642 11.0528 11.3106 10.247C11.857 9.44121 12.0908 8.46381 11.9681 7.498C11.8454 6.53219 11.3747 5.64427 10.6442 5.00068C9.91373 4.35709 8.97358 4.00202 8 4.00202C7.02643 4.00202 6.08628 4.35709 5.35577 5.00068C4.62526 5.64427 4.15456 6.53219 4.03188 7.498C3.90921 8.46381 4.14299 9.44121 4.6894 10.247C5.23581 11.0528 6.05734 11.6316 7 11.875V14C7 14.7956 7.31607 15.5587 7.87868 16.1213C8.44129 16.6839 9.20435 17 10 17H15V20.125C14.0573 20.3684 13.2358 20.9472 12.6894 21.753C12.143 22.5588 11.9092 23.5362 12.0319 24.502C12.1546 25.4678 12.6253 26.3557 13.3558 26.9993C14.0863 27.6429 15.0264 27.998 16 27.998C16.9736 27.998 17.9137 27.6429 18.6442 26.9993C19.3747 26.3557 19.8454 25.4678 19.9681 24.502C20.0908 23.5362 19.857 22.5588 19.3106 21.753C18.7642 20.9472 17.9427 20.3684 17 20.125V17H22C22.7957 17 23.5587 16.6839 24.1213 16.1213C24.6839 15.5587 25 14.7956 25 14V11.875C25.8583 11.6521 26.6185 11.1507 27.1613 10.4495C27.7042 9.74828 27.9992 8.8868 28 8ZM6 8C6 7.60444 6.1173 7.21776 6.33706 6.88886C6.55683 6.55996 6.86918 6.30362 7.23463 6.15224C7.60009 6.00086 8.00222 5.96126 8.39018 6.03843C8.77814 6.1156 9.13451 6.30608 9.41422 6.58579C9.69392 6.86549 9.8844 7.22186 9.96157 7.60982C10.0387 7.99778 9.99914 8.39991 9.84776 8.76537C9.69639 9.13082 9.44004 9.44318 9.11114 9.66294C8.78224 9.8827 8.39556 10 8 10C7.46957 10 6.96086 9.78929 6.58579 9.41421C6.21072 9.03914 6 8.53043 6 8ZM18 24C18 24.3956 17.8827 24.7822 17.6629 25.1111C17.4432 25.44 17.1308 25.6964 16.7654 25.8478C16.3999 25.9991 15.9978 26.0387 15.6098 25.9616C15.2219 25.8844 14.8655 25.6939 14.5858 25.4142C14.3061 25.1345 14.1156 24.7781 14.0384 24.3902C13.9613 24.0022 14.0009 23.6001 14.1522 23.2346C14.3036 22.8692 14.56 22.5568 14.8889 22.3371C15.2178 22.1173 15.6044 22 16 22C16.5304 22 17.0391 22.2107 17.4142 22.5858C17.7893 22.9609 18 23.4696 18 24ZM24 10C23.6044 10 23.2178 9.8827 22.8889 9.66294C22.56 9.44318 22.3036 9.13082 22.1522 8.76537C22.0009 8.39991 21.9613 7.99778 22.0384 7.60982C22.1156 7.22186 22.3061 6.86549 22.5858 6.58579C22.8655 6.30608 23.2219 6.1156 23.6098 6.03843C23.9978 5.96126 24.3999 6.00086 24.7654 6.15224C25.1308 6.30362 25.4432 6.55996 25.6629 6.88886C25.8827 7.21776 26 7.60444 26 8C26 8.53043 25.7893 9.03914 25.4142 9.41421C25.0391 9.78929 24.5304 10 24 10Z" fill="#FF5257"/>
</svg>
