<svg width="32" height="32" viewBox="0 0 32 32" fill="none" xmlns="http://www.w3.org/2000/svg">
<path opacity="0.2" d="M25.9999 12.999C26.0012 14.5142 25.6576 16.0098 24.9951 17.3725C24.3326 18.7352 23.3686 19.9292 22.1762 20.864C21.812 21.1462 21.5168 21.5077 21.313 21.9209C21.1092 22.3341 21.0022 22.7883 20.9999 23.249V23.999C20.9999 24.2642 20.8946 24.5186 20.707 24.7061C20.5195 24.8936 20.2651 24.999 19.9999 24.999H11.9999C11.7347 24.999 11.4803 24.8936 11.2928 24.7061C11.1053 24.5186 10.9999 24.2642 10.9999 23.999V23.249C10.9994 22.7908 10.8945 22.3387 10.693 21.9272C10.4916 21.5157 10.199 21.1555 9.83741 20.874C8.64863 19.9453 7.68574 18.7594 7.02109 17.4052C6.35644 16.051 6.0073 14.5638 5.99991 13.0553C5.96991 7.63525 10.3399 3.124 15.7587 2.999C17.092 2.96683 18.4184 3.20171 19.6596 3.68983C20.9009 4.17795 22.0319 4.90945 22.9862 5.84126C23.9405 6.77307 24.6987 7.88636 25.2163 9.11561C25.7339 10.3449 26.0003 11.6652 25.9999 12.999Z" fill="#F27350"/>
<path d="M21.9999 28.9993C21.9999 29.2645 21.8946 29.5189 21.707 29.7064C21.5195 29.8939 21.2651 29.9993 20.9999 29.9993H10.9999C10.7347 29.9993 10.4803 29.8939 10.2928 29.7064C10.1053 29.5189 9.99992 29.2645 9.99992 28.9993C9.99992 28.7341 10.1053 28.4797 10.2928 28.2922C10.4803 28.1046 10.7347 27.9993 10.9999 27.9993H20.9999C21.2651 27.9993 21.5195 28.1046 21.707 28.2922C21.8946 28.4797 21.9999 28.7341 21.9999 28.9993ZM26.9999 12.9993C27.0042 14.6663 26.6276 16.3123 25.8989 17.8117C25.1701 19.311 24.1085 20.624 22.7949 21.6505C22.5493 21.8388 22.35 22.0807 22.2122 22.3578C22.0744 22.6349 22.0018 22.9398 21.9999 23.2493V23.9993C21.9999 24.5297 21.7892 25.0384 21.4141 25.4135C21.0391 25.7886 20.5304 25.9993 19.9999 25.9993H11.9999C11.4695 25.9993 10.9608 25.7886 10.5857 25.4135C10.2106 25.0384 9.99992 24.5297 9.99992 23.9993V23.2493C9.99971 22.9435 9.92941 22.6419 9.79441 22.3676C9.65941 22.0932 9.4633 21.8535 9.22117 21.6668C7.91092 20.6463 6.84998 19.3412 6.11864 17.8502C5.38731 16.3591 5.00475 14.7213 4.99992 13.0605C4.96742 7.10304 9.78242 2.14179 15.7349 1.99929C17.2016 1.96394 18.6605 2.22235 20.0259 2.75931C21.3912 3.29626 22.6353 4.10091 23.685 5.1259C24.7347 6.15089 25.5687 7.37549 26.138 8.72765C26.7073 10.0798 27.0003 11.5322 26.9999 12.9993ZM24.9999 12.9993C25.0003 11.7989 24.7605 10.6105 24.2946 9.50415C23.8288 8.39779 23.1464 7.39581 22.2875 6.55718C21.4286 5.71854 20.4106 5.06021 19.2934 4.62092C18.1762 4.18163 16.9825 3.97028 15.7824 3.99929C10.9074 4.11429 6.97367 8.17304 6.99992 13.048C7.00449 14.4063 7.31791 15.7457 7.91649 16.9649C8.51506 18.1841 9.3831 19.2513 10.4549 20.0855C10.9367 20.4601 11.3264 20.9399 11.5942 21.4883C11.862 22.0367 12.0008 22.639 11.9999 23.2493V23.9993H19.9999V23.2493C20.0013 22.6373 20.1425 22.0337 20.4126 21.4845C20.6827 20.9354 21.0747 20.4552 21.5587 20.0805C22.6338 19.2403 23.5027 18.1656 24.0991 16.9383C24.6955 15.7111 25.0036 14.3638 24.9999 12.9993ZM22.9862 11.8318C22.7269 10.3834 22.03 9.04924 20.9895 8.00891C19.9489 6.96858 18.6146 6.27203 17.1662 6.01304C17.0367 5.9912 16.9041 5.9951 16.7761 6.02449C16.6481 6.05388 16.5271 6.1082 16.4201 6.18435C16.3131 6.26049 16.2221 6.35697 16.1524 6.46827C16.0826 6.57957 16.0355 6.70352 16.0137 6.83304C15.9918 6.96255 15.9957 7.0951 16.0251 7.22311C16.0545 7.35113 16.1088 7.47209 16.185 7.57911C16.2611 7.68613 16.3576 7.77711 16.4689 7.84684C16.5802 7.91658 16.7042 7.9637 16.8337 7.98554C18.9049 8.33429 20.6624 10.0918 21.0137 12.1668C21.0532 12.3997 21.174 12.6111 21.3545 12.7634C21.535 12.9158 21.7637 12.9994 21.9999 12.9993C22.0564 12.9989 22.1128 12.9944 22.1687 12.9855C22.4301 12.9409 22.663 12.7943 22.8163 12.5779C22.9696 12.3616 23.0307 12.0932 22.9862 11.8318Z" fill="#F27350"/>
</svg>
