<svg width="24" height="24" viewBox="0 0 24 24" fill="none" xmlns="http://www.w3.org/2000/svg">
  <path d="M8.5 3C7.1 3 6 4.1 6 5.5S7.1 8 8.5 8H11V5.5C11 4.1 9.9 3 8.5 3Z" fill="black"/>
  <path d="M8.5 10H5.5C4.1 10 3 11.1 3 12.5S4.1 15 5.5 15H8.5C9.9 15 11 13.9 11 12.5S9.9 10 8.5 10Z" fill="black"/>
  <path d="M15.5 21C16.9 21 18 19.9 18 18.5S16.9 16 15.5 16H13V18.5C13 19.9 14.1 21 15.5 21Z" fill="black"/>
  <path d="M15.5 14H18.5C19.9 14 21 12.9 21 11.5S19.9 9 18.5 9H15.5C14.1 9 13 10.1 13 11.5S14.1 14 15.5 14Z" fill="black"/>
  <path d="M5.5 8C4.1 8 3 6.9 3 5.5S4.1 3 5.5 3S8 4.1 8 5.5V8H5.5Z" fill="black"/>
  <path d="M18.5 16C19.9 16 21 17.1 21 18.5S19.9 21 18.5 21S16 19.9 16 18.5V16H18.5Z" fill="black"/>
</svg>